<svg id="Болить_зуб" data-name="Болить зуб" xmlns="http://www.w3.org/2000/svg" width="60" height="60" viewBox="0 0 60 60">
  <g id="Group_332" data-name="Group 332">
    <rect id="Rectangle_242" data-name="Rectangle 242" width="60" height="60" fill="none"/>
  </g>
  <g id="Group_335" data-name="Group 335" transform="translate(25.103 5.79)">
    <g id="Group_333" data-name="Group 333" transform="translate(0 25.71)">
      <path id="Path_616" data-name="Path 616" d="M43.265-51.865c-1.065-2.31-2.655-3.863-4.9-3.863A4.391,4.391,0,0,0,35.39-54.58a8.13,8.13,0,0,0-1.92,2.7,22.774,22.774,0,0,1,1.17-2.7c.975-1.868,2.228-3.42,3.728-3.42C40.565-58,42.253-54.64,43.265-51.865Z" transform="translate(-33.47 58)" fill="#f0f2f9"/>
    </g>
    <g id="Group_334" data-name="Group 334" transform="translate(14.655)">
      <path id="Path_617" data-name="Path 617" d="M58.35-71.235c-.893,1.92-1.6,3.443-1.6,4.688a25.878,25.878,0,0,0,.33,3.773,32.583,32.583,0,0,1,.42,5.227,23.239,23.239,0,0,1-1.177,7.538,36.679,36.679,0,0,0,.427-5.3c0-6.022-1.5-6.757-1.5-9.757,0-5.25,2.25-5.993,2.25-11.993a7.738,7.738,0,0,0-.412-2.415l.945-.945a.756.756,0,0,0,0-1.065L56.46-83.055l1.575-1.567a.752.752,0,0,0,.007-1.05l-3-3.15-.007-.007a.739.739,0,0,0-.675-.21.761.761,0,0,0-.383.2l-.487.48a18.889,18.889,0,0,1-.48-3.922c2.88.472,5.685,1.373,7.38,3.052A5.278,5.278,0,0,1,62-85.29C62-79.118,59.888-74.558,58.35-71.235Z" transform="translate(-53.01 92.28)" fill="#f0f2f9"/>
    </g>
  </g>
  <g id="Group_338" data-name="Group 338" transform="translate(32.998 9.017)">
    <g id="Group_336" data-name="Group 336" transform="translate(1.817 5.458)">
      <path id="Path_618" data-name="Path 618" d="M49.548-76.47v.008l-1.043,1.035L46.42-77.513l1.05-1.027Z" transform="translate(-46.42 80.16)" fill="#68dec2"/>
      <path id="Path_619" data-name="Path 619" d="M51.655-77.542,48.528-80.67a.132.132,0,0,0-.037-.03l3.217,3.217A.375.375,0,0,0,51.655-77.542Z" transform="translate(-46.937 80.7)" fill="#3b3d4d"/>
    </g>
    <g id="Group_337" data-name="Group 337">
      <path id="Path_620" data-name="Path 620" d="M53.22-80.845,54.8-79.278,52.7-77.185l-1.47-1.463-.045-.053L47.97-81.917l-1.56-1.56L48.5-85.57l1.62,1.627,1.522,1.522a.763.763,0,0,0,1.065,0,.756.756,0,0,0,0-1.065l-.99-.982.577-.562.54-.533,1.965,2.07L53.22-81.91A.756.756,0,0,0,53.22-80.845Z" transform="translate(-44.601 87.376)" fill="#68dec2"/>
      <path id="Path_621" data-name="Path 621" d="M47.82-78.54,49.9-76.463v-.007Z" transform="translate(-44.953 85.618)" fill="#3b3d4d"/>
      <path id="Path_622" data-name="Path 622" d="M55.782-80.412l-1.575-1.567,1.575-1.568a.752.752,0,0,0,.007-1.05l-3-3.15-.007-.008a.739.739,0,0,0-.675-.21.761.761,0,0,0-.383.2l-.487.48-1.178,1.148-1.628-1.628a.769.769,0,0,0-1.065,0l-3.15,3.15a.756.756,0,0,0,0,1.065L45.8-81.964l-1.575,1.552a.755.755,0,0,0-.007,1.065l3.15,3.15a.763.763,0,0,0,1.065,0L50-77.764,51.567-76.2a.763.763,0,0,0,1.065,0l3.15-3.15A.756.756,0,0,0,55.782-80.412Zm-6.84,1.59L47.9-77.787l-2.085-2.085,1.05-1.027,2.078,2.07ZM52.1-77.787l-1.47-1.463-.045-.053-3.217-3.217-1.56-1.56L47.9-86.172l1.62,1.628,1.522,1.522a.763.763,0,0,0,1.065,0,.756.756,0,0,0,0-1.065l-.99-.982.577-.562.54-.533,1.965,2.07-1.582,1.583a.756.756,0,0,0,0,1.065l1.575,1.567Z" transform="translate(-43.998 87.978)" fill="#3b3d4d"/>
    </g>
  </g>
  <g id="Group_342" data-name="Group 342" transform="translate(9.749 3.737)">
    <g id="Group_339" data-name="Group 339" transform="translate(35.258 14.091)">
      <path id="Path_623" data-name="Path 623" d="M61.457-66.592A37.811,37.811,0,0,0,64.78-76.23c-1.253,6.69-4.605,10.988-4.77,13.485A15.115,15.115,0,0,1,61.457-66.592Z" transform="translate(-60.01 76.23)" fill="#3b3d4d"/>
    </g>
    <g id="Group_340" data-name="Group 340" transform="translate(7.501 6.784)">
      <path id="Path_624" data-name="Path 624" d="M32-80.723a8.021,8.021,0,0,1-5.068-2.187c-1.084-.838-2.022-1.562-3.182-1.562a.75.75,0,0,1-.75-.75.75.75,0,0,1,.75-.75,6.728,6.728,0,0,1,4.1,1.874c1.248.964,2.427,1.874,4.151,1.874a3.325,3.325,0,0,0,2.4-1.207.75.75,0,0,1,1.049-.143.748.748,0,0,1,.149,1.045A4.8,4.8,0,0,1,32-80.723Z" transform="translate(-23 85.972)" fill="#3b3d4d"/>
    </g>
    <g id="Group_341" data-name="Group 341">
      <path id="Path_625" data-name="Path 625" d="M53.485-86.5c-.955-9.277-15.694-8.433-21-8.5-4.724-.118-19.61-.049-19.485,9.007,0,6.51,2.19,11.235,3.8,14.692a12.585,12.585,0,0,1,1.455,4.058c-.059,3.437-.782,5.03-.75,9.007,0,9.608,4.927,15.743,7.5,15.743,2.61,0,3-5.167,3-8.25.065-4.437.835-12.385,5.25-12.743,3.608,0,5.25,6.608,5.25,12.743,0,3.083.39,8.25,3,8.25,2.49,0,7.193-5.76,7.485-14.85.227-3.463-.707-6.638-.728-10.088.158-2.517,3.516-6.8,4.77-13.5A25.9,25.9,0,0,0,53.485-86.5Zm-5.138,14.58c-.893,1.92-1.6,3.443-1.6,4.688.049,3.516.784,5.086.75,9a23.245,23.245,0,0,1-1.185,7.56c-1.507,4.455-4.028,6.682-4.815,6.682-.472,0-1.5-1.7-1.5-6.75-.076-4.877-.91-13.956-6.75-14.243-5.837.3-6.672,9.332-6.75,14.243,0,5.048-1.028,6.75-1.5,6.75-1.148,0-6-4.748-6-14.243-.035-3.908.7-5.486.75-8.993A5.085,5.085,0,0,0,22-65.754a.753.753,0,0,0,.338-1.418c-4.1-2.217-7.937-11.92-7.838-18.817.149-7.915,13.749-7.471,17.97-7.507a60.814,60.814,0,0,1,10.537.533c4.295.746,8.938,2.314,8.993,6.99C52-79.8,49.885-75.242,48.347-71.919Z" transform="translate(-12.999 95.018)" fill="#3b3d4d"/>
    </g>
  </g>
  <g id="Group_349" data-name="Group 349" transform="translate(5.25 2.799)">
    <g id="Group_343" data-name="Group 343" transform="translate(1.5 0.576)">
      <path id="Path_626" data-name="Path 626" d="M9-94l3,2.25.75-.75-2.25-3Z" transform="translate(-9 95.5)" fill="#68dec2"/>
    </g>
    <g id="Group_344" data-name="Group 344" transform="translate(43.125 26.826)">
      <path id="Path_627" data-name="Path 627" d="M66.75-58.25l-2.25-1.5.75-.75,2.25,1.125Z" transform="translate(-64.5 60.5)" fill="#68dec2"/>
    </g>
    <g id="Group_345" data-name="Group 345" transform="translate(45 22.701)">
      <path id="Path_628" data-name="Path 628" d="M70-61.5l-3-3,.75-1.5,4.5,1.125Z" transform="translate(-67 66)" fill="#68dec2"/>
    </g>
    <g id="Group_346" data-name="Group 346" transform="translate(46.125)">
      <path id="Path_629" data-name="Path 629" d="M72.25-94.018l-3,3-.75-.75,1.875-4.5Z" transform="translate(-68.5 96.268)" fill="#68dec2"/>
    </g>
    <g id="Group_347" data-name="Group 347" transform="translate(0 22.326)">
      <path id="Path_630" data-name="Path 630" d="M9.25-61.25,13.75-65,13-66.5,7-65.375Z" transform="translate(-7 66.5)" fill="#68dec2"/>
    </g>
    <g id="Group_348" data-name="Group 348" transform="translate(5.625 25.701)">
      <path id="Path_631" data-name="Path 631" d="M15.25-58.25,17.5-60.5,16.75-62,14.5-60.125Z" transform="translate(-14.5 62)" fill="#68dec2"/>
    </g>
  </g>
</svg>
