<svg id="Відбілювання" xmlns="http://www.w3.org/2000/svg" width="60" height="60" viewBox="0 0 60 60">
  <g id="Group_259" data-name="Group 259">
    <rect id="Rectangle_234" data-name="Rectangle 234" width="60" height="60" fill="none"/>
  </g>
  <g id="Group_260" data-name="Group 260" transform="translate(38.258 5.663)">
    <path id="Path_552" data-name="Path 552" d="M358.247,9.98l-1.215,3.938-4.32,1.335a19.26,19.26,0,0,1-1.7-7.7A16.956,16.956,0,0,1,358.247,9.98Z" transform="translate(-351.01 -7.55)" fill="#f0f2f9"/>
    <path id="Path_553" data-name="Path 553" d="M359.318,28.675a1.629,1.629,0,0,0,.112.262c-.525,1.343-1.08,2.543-1.582,3.622-.892,1.92-1.6,3.443-1.6,4.688a25.876,25.876,0,0,0,.33,3.772,32.585,32.585,0,0,1,.42,5.228,21.578,21.578,0,0,1-2.452,10.47,41.468,41.468,0,0,0,.952-8.22c0-6.022-1.5-6.757-1.5-9.757,0-5.25,2.25-5.993,2.25-11.992a9.114,9.114,0,0,0-.975-3.817l2.5.772Z" transform="translate(-351.758 -11.395)" fill="#f0f2f9"/>
  </g>
  <g id="Group_261" data-name="Group 261" transform="translate(6.75 3.741)">
    <path id="Path_554" data-name="Path 554" d="M357.443,14.815l-4.973-1.537L350.932,8.3a1.5,1.5,0,0,0-2.663-.413C343.62,4.877,335.505,4.967,332.25,5c-.585.008-.93.008-1.515,0-3.615-.038-13.23-.135-17.43,4.012A6.779,6.779,0,0,0,311.25,14c0,6.51,2.19,11.242,3.795,14.692a12.584,12.584,0,0,1,1.455,4.058,24.5,24.5,0,0,1-.315,3.57q-.045.315-.09.653a1.473,1.473,0,0,0-1.1-.48,1.5,1.5,0,0,0-1.432,1.057l-.825,2.685-2.685.825a1.5,1.5,0,0,0,0,2.865l2.685.825.825,2.685a1.5,1.5,0,0,0,2.82.12c1.417,6.21,4.852,9.945,6.862,9.945,2.61,0,3-5.167,3-8.25,0-6.135,1.643-12.743,5.25-12.743s5.25,6.608,5.25,12.743c0,3.083.39,8.25,3,8.25,2.573,0,7.5-6.135,7.5-15.743a34.913,34.913,0,0,0-.435-5.437,24.3,24.3,0,0,1-.315-3.562,12.584,12.584,0,0,1,1.455-4.058c.48-1.035,1.012-2.182,1.522-3.458h.022a1.5,1.5,0,0,0,1.432-1.057l1.538-4.973,4.973-1.538a1.5,1.5,0,0,0,0-2.865Zm-41.385,28.74-.2.653L315,47l-1.057-3.443L310.5,42.5l3.443-1.057L315,38l.772,2.512.285.93,1.193.368,2.25.69-2.213.682Zm30.54-15.48c-.892,1.92-1.6,3.443-1.6,4.688a25.876,25.876,0,0,0,.33,3.772,32.585,32.585,0,0,1,.42,5.228,21.579,21.579,0,0,1-2.452,10.47C341.91,54.752,340.342,56,339.75,56c-.473,0-1.5-1.7-1.5-6.75A26.02,26.02,0,0,0,336.367,38.8c-1.073-2.265-2.647-3.787-4.867-3.787s-3.795,1.522-4.867,3.787a26.02,26.02,0,0,0-1.883,10.455c0,5.048-1.027,6.75-1.5,6.75-1.02,0-4.98-3.765-5.835-11.295l2.527-.78a1.5,1.5,0,0,0,0-2.865l-2.655-.818a33.55,33.55,0,0,1,.383-3.713,25.756,25.756,0,0,0,.33-3.757,6.97,6.97,0,0,0,1.912,1.388.7.7,0,0,0,.338.083.736.736,0,0,0,.668-.412.744.744,0,0,0-.33-1.005c-1.178-.593-2.685-1.815-4.913-6.413a.586.586,0,0,0-.075-.113A29.525,29.525,0,0,1,312.75,14a5.261,5.261,0,0,1,1.612-3.93C318.112,6.37,327.27,6.46,330.72,6.5c.6.008.953.008,1.545,0a56.137,56.137,0,0,1,8.243.413,16.956,16.956,0,0,1,7.237,2.43l-1.215,3.938-4.32,1.335-.652.2a1.5,1.5,0,0,0,0,2.865l2.468.765,2.5.772,1.538,4.973a1.629,1.629,0,0,0,.112.262C347.655,25.795,347.1,26.995,346.6,28.075Zm4.875-10.117-.2.06-1.77,5.73-.12-.382L349,22.12l-1.267-4.1L343.14,16.6,342,16.247l.84-.262,4.89-1.507,1.245-4.027.27-.863.233-.765.022-.075.045.135.57,1.852.87,2.82.285.922.465.142L357,16.247Z" transform="translate(-309 -4.988)" fill="#3b3d4d"/>
    <path id="Path_555" data-name="Path 555" d="M342.245,48.055c-1.073-2.265-2.647-3.787-4.867-3.787s-3.795,1.522-4.867,3.787c1.02-2.76,2.693-6.045,4.867-6.045S341.225,45.295,342.245,48.055Z" transform="translate(-314.878 -14.244)" fill="#f0f2f9"/>
  </g>
  <g id="Group_262" data-name="Group 262" transform="translate(16.5 10.514)">
    <path id="Path_556" data-name="Path 556" d="M331,19.267a8.026,8.026,0,0,1-5.068-2.188c-1.085-.839-2.022-1.562-3.182-1.562a.75.75,0,0,1,0-1.5,6.722,6.722,0,0,1,4.1,1.874c1.248.964,2.427,1.875,4.151,1.875a3.319,3.319,0,0,0,2.4-1.208.75.75,0,0,1,1.2.9A4.8,4.8,0,0,1,331,19.267Z" transform="translate(-322 -14.018)" fill="#3b3d4d"/>
  </g>
  <g id="Group_264" data-name="Group 264" transform="translate(47.228 7.5)">
    <g id="Group_263" data-name="Group 263">
      <path id="Path_557" data-name="Path 557" d="M363.037,10.135a.485.485,0,0,0-.067-.06l.022-.075Z" transform="translate(-362.97 -10)" fill="#68dec2"/>
    </g>
  </g>
  <g id="Group_267" data-name="Group 267" transform="translate(8.25 7.575)">
    <g id="Group_265" data-name="Group 265" transform="translate(0 29.175)">
      <path id="Path_558" data-name="Path 558" d="M320,53.5l-3.443,1.057L315.5,58l-1.057-3.443L311,53.5l3.443-1.058L315.5,49l1.057,3.442Z" transform="translate(-311 -49)" fill="#68dec2"/>
    </g>
    <g id="Group_266" data-name="Group 266" transform="translate(31.5)">
      <path id="Path_559" data-name="Path 559" d="M368,17.525l-5.527,1.71-.2.06-1.77,5.73L360,23.4V23.39L358.73,19.3,353,17.525l5.73-1.77,1.245-4.027.5-1.628a.485.485,0,0,1,.067.06l1.725,5.595.465.142Z" transform="translate(-353 -10.1)" fill="#68dec2"/>
    </g>
  </g>
</svg>
