<svg id="Гігієна_та_профілактика" data-name="Гігієна та профілактика" xmlns="http://www.w3.org/2000/svg" width="60" height="60" viewBox="0 0 60 60">
  <g id="Group_292" data-name="Group 292">
    <rect id="Rectangle_239" data-name="Rectangle 239" width="60" height="60" fill="none"/>
  </g>
  <g id="Group_295" data-name="Group 295" transform="translate(30.18 14.94)">
    <g id="Group_293" data-name="Group 293" transform="translate(0 20.775)">
      <path id="Path_593" data-name="Path 593" d="M347.38-48.458a4.184,4.184,0,0,0-3.57-2.22,4.184,4.184,0,0,0-3.57,2.22c.84-1.972,2.055-3.922,3.57-3.922S346.54-50.43,347.38-48.458Z" transform="translate(-340.24 52.38)" fill="#f0f2f9"/>
    </g>
    <g id="Group_294" data-name="Group 294" transform="translate(10.913)">
      <path id="Path_594" data-name="Path 594" d="M361.01-64.27a2.96,2.96,0,0,0,.743,1.3c-.488,1.342-1.035,2.513-1.515,3.548a10.581,10.581,0,0,0-1.312,3.877,20.355,20.355,0,0,0,.27,3.1,27.128,27.128,0,0,1,.337,4.237,17.849,17.849,0,0,1-1.77,8.085,32.8,32.8,0,0,0,.69-6.255c0-4.9-1.222-5.505-1.222-7.95,0-4.275,1.83-4.882,1.83-9.772a6.035,6.035,0,0,0-.083-.975A3.106,3.106,0,0,0,361.01-64.27Z" transform="translate(-355.4 76.33)" fill="#f0f2f9"/>
      <path id="Path_595" data-name="Path 595" d="M357.422-71.47c-1.027-2.167-2.49-4.6-2.632-8.61,2.505.285,5.055.93,6.533,2.378a3.952,3.952,0,0,1,1.027,1.613,3.045,3.045,0,0,0-1.95,2.07A3.055,3.055,0,0,0,357.422-71.47Z" transform="translate(-354.79 80.08)" fill="#f0f2f9"/>
    </g>
  </g>
  <g id="Group_298" data-name="Group 298" transform="translate(15 20.25)">
    <g id="Group_296" data-name="Group 296" transform="translate(30.188)">
      <path id="Path_596" data-name="Path 596" d="M369.25-69.25a1.548,1.548,0,0,1-1.582,1.5h-1.335V-67a1.548,1.548,0,0,1-1.582,1.5,1.762,1.762,0,0,1-.45-.06A1.527,1.527,0,0,1,363.168-67v-.75h-1.335a1.548,1.548,0,0,1-1.582-1.5,1.548,1.548,0,0,1,1.582-1.5h1.335v-.75a1.5,1.5,0,0,1,.788-1.3,1.646,1.646,0,0,1,.795-.2,1.57,1.57,0,0,1,.705.158,1.338,1.338,0,0,1,.383.262.466.466,0,0,1,.1.1c.015.008.022.023.03.03a.713.713,0,0,1,.112.15,1.32,1.32,0,0,1,.105.173,3.046,3.046,0,0,0-1.275.743.747.747,0,0,0-.022,1.057.739.739,0,0,0,.54.232.756.756,0,0,0,.525-.21,1.594,1.594,0,0,1,1.125-.45h.585A1.548,1.548,0,0,1,369.25-69.25Z" transform="translate(-360.25 73)" fill="#68dec2"/>
    </g>
    <g id="Group_297" data-name="Group 297" transform="translate(0 7.5)">
      <path id="Path_597" data-name="Path 597" d="M332-57.75a2.257,2.257,0,0,1-2.25,2.25h-.69l-.12.6a2.977,2.977,0,0,1-1.17,1.815,2.991,2.991,0,0,1-1.59.577,1.445,1.445,0,0,1-.18.007,3.017,3.017,0,0,1-2.94-2.4l-.12-.6h-.69A2.257,2.257,0,0,1,320-57.75,2.257,2.257,0,0,1,322.25-60h.69v-.007A.165.165,0,0,0,323-60a2.214,2.214,0,0,1,.878.18,2.172,2.172,0,0,1,.712.48.768.768,0,0,0,.533.217.782.782,0,0,0,.533-.217.756.756,0,0,0,0-1.065,3.755,3.755,0,0,0-1.192-.8,3.721,3.721,0,0,0-1.058-.27,1.3,1.3,0,0,1,.082-.135,2.1,2.1,0,0,1,.188-.262,2.937,2.937,0,0,1,1.26-.93A3.011,3.011,0,0,1,326-63a1.971,1.971,0,0,1,.367.03.085.085,0,0,1,.06.007,1.432,1.432,0,0,1,.247.045.208.208,0,0,1,.1.022.635.635,0,0,1,.128.037c.09.03.172.06.262.1a1.434,1.434,0,0,1,.24.12.35.35,0,0,1,.075.037,1.7,1.7,0,0,1,.2.12c.015.008.03.023.045.03a1.46,1.46,0,0,1,.172.128,3.075,3.075,0,0,1,.713.84,4.056,4.056,0,0,0-1.065.278.755.755,0,0,0-.4.983.749.749,0,0,0,.69.458.777.777,0,0,0,.292-.053A2.214,2.214,0,0,1,329-60a.165.165,0,0,0,.06-.007V-60h.69A2.257,2.257,0,0,1,332-57.75Z" transform="translate(-320 63)" fill="#68dec2"/>
    </g>
  </g>
  <g id="Group_302" data-name="Group 302" transform="translate(3 3.75)">
    <g id="Group_299" data-name="Group 299">
      <path id="Path_598" data-name="Path 598" d="M313.75-93.5h-4.5v-.75a.752.752,0,0,0-.75-.75h-3.75a.752.752,0,0,0-.75.75V-80a.7.7,0,0,0,.052.278L307-72.357v26.482a2.628,2.628,0,0,0,2.625,2.625,2.628,2.628,0,0,0,2.625-2.625V-72.5a.7.7,0,0,0-.052-.278L309.31-80h4.44a.752.752,0,0,0,.75-.75v-12A.752.752,0,0,0,313.75-93.5Zm-3,21.143v26.482a1.123,1.123,0,0,1-1.125,1.125,1.123,1.123,0,0,1-1.125-1.125V-72.5a.7.7,0,0,0-.052-.278L305.5-80.143V-93.5h2.25V-80a.7.7,0,0,0,.052.278ZM313-81.5h-3.75V-83H313Zm0-3h-3.75V-86H313Zm0-3h-3.75V-89H313Zm0-3h-3.75V-92H313Z" transform="translate(-304 95)" fill="#3b3d4d"/>
    </g>
    <g id="Group_300" data-name="Group 300" transform="translate(20.219 14.716)">
      <path id="Path_599" data-name="Path 599" d="M338.432-70.824a6.65,6.65,0,0,1-4.215-1.812,4.359,4.359,0,0,0-2.509-1.243.75.75,0,0,1-.75-.75.75.75,0,0,1,.75-.75,5.586,5.586,0,0,1,3.426,1.556,5.3,5.3,0,0,0,3.3,1.5,2.553,2.553,0,0,0,1.845-.925.75.75,0,0,1,1.05-.151.749.749,0,0,1,.151,1.049A4.059,4.059,0,0,1,338.432-70.824Z" transform="translate(-330.958 75.379)" fill="#3b3d4d"/>
    </g>
    <g id="Group_301" data-name="Group 301" transform="translate(10.5 9.49)">
      <path id="Path_600" data-name="Path 600" d="M357.173-74.587a3.08,3.08,0,0,0-2.49-2.212,5.54,5.54,0,0,0-1.508-2.543c-3.255-3.187-10.147-3.053-13.455-2.978-.7.015-1.058.015-1.777,0-3.36-.075-11.228-.233-14.663,3.142a5.433,5.433,0,0,0-1.673,4.028,23.45,23.45,0,0,0,1.028,6.848,4.421,4.421,0,0,0-1.388,1.995A3.767,3.767,0,0,0,318-62.587a3.767,3.767,0,0,0,3.247,3.72,4.517,4.517,0,0,0,4.223,3.03,27.51,27.51,0,0,0-.195,3.307c0,7.92,4.1,12.975,6.247,12.975,2.25,0,2.588-4.305,2.588-6.87,0-6.03,1.7-10.245,4.14-10.245s4.14,4.215,4.14,10.245c0,2.565.338,6.87,2.588,6.87,2.145,0,6.247-5.055,6.247-12.975a28.652,28.652,0,0,0-.352-4.447,19.6,19.6,0,0,1-.255-2.888,10.355,10.355,0,0,1,1.17-3.248c.458-.99.975-2.107,1.455-3.375a3.04,3.04,0,0,0,.945.15,3.08,3.08,0,0,0,2.985-2.25,3.041,3.041,0,0,0,3.015-3A3.041,3.041,0,0,0,357.173-74.587ZM325.5-57.337a3.017,3.017,0,0,1-2.94-2.4l-.12-.6h-.69a2.257,2.257,0,0,1-2.25-2.25,2.257,2.257,0,0,1,2.25-2.25h.69v-.007a.165.165,0,0,0,.06.007,2.214,2.214,0,0,1,.878.18,2.172,2.172,0,0,1,.712.48.768.768,0,0,0,.533.217.782.782,0,0,0,.533-.217.756.756,0,0,0,0-1.065,3.755,3.755,0,0,0-1.192-.8,3.721,3.721,0,0,0-1.058-.27,1.3,1.3,0,0,1,.082-.135,1.535,1.535,0,0,1,.188-.262,2.937,2.937,0,0,1,1.26-.93,3.012,3.012,0,0,1,1.065-.195,1.971,1.971,0,0,1,.367.03.085.085,0,0,1,.06.007,1.431,1.431,0,0,1,.247.045.208.208,0,0,1,.1.022.635.635,0,0,1,.128.038c.09.03.172.06.262.1a1.435,1.435,0,0,1,.24.12.35.35,0,0,1,.075.037,1.7,1.7,0,0,1,.2.12c.015.007.03.022.045.03a1.461,1.461,0,0,1,.172.128,3.075,3.075,0,0,1,.713.84,4.056,4.056,0,0,0-1.065.277.755.755,0,0,0-.4.983.749.749,0,0,0,.69.457.777.777,0,0,0,.292-.052,2.214,2.214,0,0,1,.878-.18.165.165,0,0,0,.06-.007v.007h.69a2.257,2.257,0,0,1,2.25,2.25,2.257,2.257,0,0,1-2.25,2.25h-.69l-.12.6a2.977,2.977,0,0,1-1.17,1.815,2.991,2.991,0,0,1-1.59.577A1.445,1.445,0,0,1,325.5-57.337Zm24.93-6.4a10.581,10.581,0,0,0-1.312,3.877,20.355,20.355,0,0,0,.27,3.1,27.128,27.128,0,0,1,.337,4.237,17.849,17.849,0,0,1-1.77,8.085c-1.14,2.243-2.49,3.375-2.978,3.39-.24,0-1.088-1.29-1.088-5.37,0-3.42-.585-7.2-2.07-9.525a4.184,4.184,0,0,0-3.57-2.22,4.184,4.184,0,0,0-3.57,2.22c-1.485,2.325-2.07,6.105-2.07,9.525,0,4.08-.848,5.37-1.088,5.37-.908-.022-4.747-3.885-4.747-11.475a24.744,24.744,0,0,1,.247-3.577,4.488,4.488,0,0,0,2.73-2.76A3.767,3.767,0,0,0,333-62.587a3.767,3.767,0,0,0-3.247-3.72,4.51,4.51,0,0,0-4.253-3.03,4.485,4.485,0,0,0-1.522.27,21.855,21.855,0,0,1-.87-6.083A3.922,3.922,0,0,1,324.33-78.1c2.985-2.932,10.688-2.775,13.582-2.715.75.015,1.118.015,1.838,0a44.836,44.836,0,0,1,5.842.173c2.505.285,5.055.93,6.533,2.377a3.952,3.952,0,0,1,1.027,1.613,3.045,3.045,0,0,0-1.95,2.07,3.055,3.055,0,0,0-2.978,2.55,2.955,2.955,0,0,0-.037.45,2.915,2.915,0,0,0,.982,2.19,3.106,3.106,0,0,0,2.033.81,2.96,2.96,0,0,0,.743,1.3C351.457-65.947,350.91-64.777,350.43-63.742Zm6.675-6.345H355.77v.75a1.548,1.548,0,0,1-1.582,1.5,1.762,1.762,0,0,1-.45-.06,1.606,1.606,0,0,1-.667-.383,1.457,1.457,0,0,1-.465-1.057v-.75H351.27a1.548,1.548,0,0,1-1.582-1.5,1.548,1.548,0,0,1,1.582-1.5h1.335v-.75a1.5,1.5,0,0,1,.788-1.3,1.636,1.636,0,0,1,.742-.2h.052a1.57,1.57,0,0,1,.705.158,1.338,1.338,0,0,1,.383.262.466.466,0,0,1,.1.1c.015.008.022.023.03.03a.713.713,0,0,1,.112.15,1.32,1.32,0,0,1,.105.173,3.046,3.046,0,0,0-1.275.743.747.747,0,0,0-.022,1.057.739.739,0,0,0,.54.232.756.756,0,0,0,.525-.21,1.594,1.594,0,0,1,1.125-.45h.585a1.548,1.548,0,0,1,1.582,1.5A1.548,1.548,0,0,1,357.105-70.087Z" transform="translate(-318 82.347)" fill="#3b3d4d"/>
    </g>
  </g>
  <g id="Group_306" data-name="Group 306" transform="translate(14.25 6)">
    <g id="Group_303" data-name="Group 303" transform="translate(33.75)">
      <circle id="Ellipse_31" data-name="Ellipse 31" cx="2.25" cy="2.25" r="2.25" fill="#68dec2"/>
    </g>
    <g id="Group_304" data-name="Group 304" transform="translate(0 44.25)">
      <circle id="Ellipse_32" data-name="Ellipse 32" cx="2.25" cy="2.25" r="2.25" fill="#68dec2"/>
    </g>
    <g id="Group_305" data-name="Group 305" transform="translate(36 40.5)">
      <circle id="Ellipse_33" data-name="Ellipse 33" cx="2.25" cy="2.25" r="2.25" fill="#68dec2"/>
    </g>
  </g>
  <g id="Group_313" data-name="Group 313" transform="translate(15 6)">
    <g id="Group_307" data-name="Group 307" transform="translate(0 36)">
      <circle id="Ellipse_34" data-name="Ellipse 34" cx="0.75" cy="0.75" r="0.75" fill="#3b3d4d"/>
    </g>
    <g id="Group_308" data-name="Group 308" transform="translate(36 30)">
      <circle id="Ellipse_35" data-name="Ellipse 35" cx="0.75" cy="0.75" r="0.75" fill="#3b3d4d"/>
    </g>
    <g id="Group_309" data-name="Group 309" transform="translate(22.5 1.5)">
      <circle id="Ellipse_36" data-name="Ellipse 36" cx="0.75" cy="0.75" r="0.75" fill="#3b3d4d"/>
    </g>
    <g id="Group_310" data-name="Group 310" transform="translate(13.5)">
      <circle id="Ellipse_37" data-name="Ellipse 37" cx="0.75" cy="0.75" r="0.75" fill="#3b3d4d"/>
    </g>
    <g id="Group_311" data-name="Group 311" transform="translate(6 4.5)">
      <circle id="Ellipse_38" data-name="Ellipse 38" cx="0.75" cy="0.75" r="0.75" fill="#3b3d4d"/>
    </g>
    <g id="Group_312" data-name="Group 312" transform="translate(6.75 27)">
      <circle id="Ellipse_39" data-name="Ellipse 39" cx="0.75" cy="0.75" r="0.75" fill="#3b3d4d"/>
    </g>
  </g>
</svg>
