<svg id="Дитяча_стоматологія" data-name="Дитяча стоматологія" xmlns="http://www.w3.org/2000/svg" width="60" height="60" viewBox="0 0 60 60">
  <rect id="Rectangle_241" data-name="Rectangle 241" width="60" height="60" fill="none"/>
  <g id="Group_322" data-name="Group 322" transform="translate(13.5 13.498)">
    <path id="Path_606" data-name="Path 606" d="M142.087-48.315a4.129,4.129,0,0,0-3.487-2.1c-2.415,0-3.93,2.13-4.77,4.98.615-2.138,2.25-6.945,4.628-6.945C140.01-52.38,141.247-50.333,142.087-48.315Z" transform="translate(-121.958 74.597)" fill="#f0f2f9"/>
    <path id="Path_607" data-name="Path 607" d="M155.38-58.15a10.566,10.566,0,0,0-1.312,3.885,21.162,21.162,0,0,0,.27,3.09,27.207,27.207,0,0,1,.338,4.238,17.427,17.427,0,0,1-2.085,8.677,34.405,34.405,0,0,0,.863-7.1c0-4.9-1.223-5.5-1.223-7.95,0-3.577,1.283-4.59,1.7-7.687H154a.757.757,0,0,1,.525.217l.315.315a.757.757,0,0,0,.525.217h.69a.755.755,0,0,0,.293-.06C156.018-59.53,155.688-58.81,155.38-58.15Z" transform="translate(-126.557 76.752)" fill="#f0f2f9"/>
    <path id="Path_608" data-name="Path 608" d="M151.285-74.8a5.666,5.666,0,0,0-1.71-4.193c-3.263-3.195-10.148-3.052-13.463-2.985-.7.015-1.05.015-1.777,0-3.36-.067-11.227-.225-14.662,3.143A5.445,5.445,0,0,0,118-74.808a27,27,0,0,0,3.1,12.03l.135.292c.03.075.068.143.1.21a8.41,8.41,0,0,1,.945,2.753,18.608,18.608,0,0,1-.262,2.887,28.648,28.648,0,0,0-.353,4.448c0,7.92,4.1,12.975,6.255,12.975,2.243,0,2.58-4.3,2.58-6.862,0-6.037,1.7-10.245,4.14-10.245s4.14,4.208,4.14,10.245c0,2.565.337,6.862,2.587,6.862,2.145,0,6.248-5.055,6.248-12.975a28.732,28.732,0,0,0-.353-4.448,19.4,19.4,0,0,1-.255-2.88,10.443,10.443,0,0,1,1.178-3.255A27.108,27.108,0,0,0,151.285-74.8Zm-4.463,11.4a10.566,10.566,0,0,0-1.312,3.885,21.162,21.162,0,0,0,.27,3.09,27.207,27.207,0,0,1,.338,4.238,17.427,17.427,0,0,1-2.085,8.678c-1.057,1.853-2.22,2.79-2.663,2.8-.24,0-1.087-1.282-1.087-5.362,0-3.48-.608-7.335-2.152-9.645a4.129,4.129,0,0,0-3.488-2.1c-2.415,0-3.93,2.13-4.77,4.98,0,.007-.007.015-.007.03-.023.083-.045.165-.068.24a2.806,2.806,0,0,0-.09.337,2.347,2.347,0,0,0-.075.33c-.007.022-.007.037-.015.045v.008a.023.023,0,0,0-.008.015,25.718,25.718,0,0,0-.607,5.76c0,4.08-.84,5.362-1.08,5.362-.908-.015-4.755-3.877-4.755-11.475a27.208,27.208,0,0,1,.338-4.238c.09-.652.18-1.275.233-1.957a6.1,6.1,0,0,0,1.988,1.6.8.8,0,0,0,.337.083.743.743,0,0,0,.667-.42.749.749,0,0,0-.33-1.005c-.87-.435-1.98-1.328-3.63-4.628-.053-.112-.105-.217-.158-.33s-.1-.218-.15-.33a25.88,25.88,0,0,1-2.962-11.4,3.922,3.922,0,0,1,1.222-2.955c2.985-2.925,10.688-2.768,13.583-2.715.75.015,1.117.015,1.837,0a44,44,0,0,1,5.715.165c2.55.27,5.167.915,6.667,2.385a4.334,4.334,0,0,1,.39.443,4.2,4.2,0,0,1,.87,2.685,23.21,23.21,0,0,1-1.995,9.24C147.46-64.781,147.13-64.061,146.822-63.4Z" transform="translate(-118 82.003)" fill="#3b3d4d"/>
    <path id="Path_609" data-name="Path 609" d="M156.867-76.923a.757.757,0,0,0-.382.2l-1.065,1.065a.757.757,0,0,1-.525.217H153.26a.757.757,0,0,0-.525.217l-1.455,1.455a15.934,15.934,0,0,1-1.47-5.985c2.55.27,5.167.915,6.667,2.385A4.332,4.332,0,0,1,156.867-76.923Z" transform="translate(-125.952 81.44)" fill="#f0f2f9"/>
  </g>
  <g id="Group_323" data-name="Group 323" transform="translate(17.458 18.015)">
    <path id="Path_154" data-name="Path 154" d="M127.446-62.075l-1.035-.207a1.357,1.357,0,0,1-1.091-1.331v-.908a1.359,1.359,0,0,0-.928-1.289l-.185-.062a1.357,1.357,0,0,1-.9-1.554l.3-1.484A1.357,1.357,0,0,1,124.932-70h1.8a1.356,1.356,0,0,1,1.214.751l.124.246a1.355,1.355,0,0,0,.785.681l.788.262a1.359,1.359,0,0,1,.929,1.289v.709a1.358,1.358,0,0,1-.4.96l-.7.7a1.356,1.356,0,0,0-.4.959v.03A1.359,1.359,0,0,1,127.446-62.075Z" transform="translate(-123.278 74.485)" fill="#68dec2"/>
    <path id="Path_610" data-name="Path 610" d="M157.535-73.3a23.21,23.21,0,0,1-1.995,9.24.755.755,0,0,1-.293.06h-.69a.756.756,0,0,1-.525-.217l-.315-.315a.757.757,0,0,0-.525-.217h-.443a.752.752,0,0,1-.75-.75.752.752,0,0,0-.75-.75h-.443a.756.756,0,0,1-.525-.217l-1.065-1.065a.757.757,0,0,1-.217-.525v-.885a.757.757,0,0,1,.217-.525l1.065-1.065a.757.757,0,0,0,.217-.525v-.885a.757.757,0,0,1,.217-.525l.36-.36,1.455-1.455a.757.757,0,0,1,.525-.217h1.635a.756.756,0,0,0,.525-.217l1.065-1.065a.757.757,0,0,1,.383-.2A4.2,4.2,0,0,1,157.535-73.3Z" transform="translate(-129.708 75.98)" fill="#68dec2"/>
  </g>
  <g id="Group_324" data-name="Group 324" transform="translate(28.5 30)">
    <circle id="Ellipse_40" data-name="Ellipse 40" cx="0.75" cy="0.75" r="0.75" transform="translate(6.75 2.25)" fill="#3b3d4d"/>
    <circle id="Ellipse_41" data-name="Ellipse 41" cx="0.75" cy="0.75" r="0.75" fill="#3b3d4d"/>
  </g>
  <g id="Group_331" data-name="Group 331" transform="translate(3.75 3.75)">
    <g id="Group_325" data-name="Group 325" transform="translate(15.75 15)">
      <path id="Path_611" data-name="Path 611" d="M133.475-70.445a6.65,6.65,0,0,1-4.215-1.812A4.364,4.364,0,0,0,126.75-73.5a.75.75,0,0,1-.75-.75.75.75,0,0,1,.75-.75,5.588,5.588,0,0,1,3.426,1.556,5.3,5.3,0,0,0,3.3,1.5,2.553,2.553,0,0,0,1.845-.925.748.748,0,0,1,1.049-.151.749.749,0,0,1,.152,1.049A4.059,4.059,0,0,1,133.475-70.445Z" transform="translate(-126 75)" fill="#3b3d4d"/>
    </g>
    <g id="Group_330" data-name="Group 330">
      <g id="Group_326" data-name="Group 326" transform="translate(0 19.313)">
        <path id="Path_612" data-name="Path 612" d="M108.751-49.547a.75.75,0,0,1-.662-.4A26.321,26.321,0,0,1,105-62.312a26.362,26.362,0,0,1,.778-6.368.751.751,0,0,1,.909-.547.751.751,0,0,1,.547.91,24.841,24.841,0,0,0-.733,6.005,24.81,24.81,0,0,0,2.911,11.661.75.75,0,0,1-.307,1.015A.753.753,0,0,1,108.751-49.547Z" transform="translate(-105 69.249)" fill="#8de6d1"/>
      </g>
      <g id="Group_327" data-name="Group 327" transform="translate(2.757 7.488)">
        <path id="Path_613" data-name="Path 613" d="M109.425-77.05a.745.745,0,0,1-.34-.082.749.749,0,0,1-.328-1.009q.268-.524.557-1.037a.752.752,0,0,1,1.022-.284.751.751,0,0,1,.284,1.022q-.274.485-.527.981A.751.751,0,0,1,109.425-77.05Zm3.9-5.637a.744.744,0,0,1-.506-.2.749.749,0,0,1-.048-1.059q.4-.435.813-.853a.752.752,0,0,1,1.061,0,.751.751,0,0,1,0,1.061c-.262.264-.518.532-.769.806A.749.749,0,0,1,113.325-82.687Z" transform="translate(-108.676 85.016)" fill="#8de6d1"/>
      </g>
      <g id="Group_328" data-name="Group 328" transform="translate(11.915)">
        <path id="Path_614" data-name="Path 614" d="M157.957-79.562a.749.749,0,0,1-.669-.41q-.252-.5-.526-.977a.75.75,0,0,1,.281-1.022.75.75,0,0,1,1.022.281q.291.512.559,1.039a.751.751,0,0,1-.328,1.009A.754.754,0,0,1,157.957-79.562Zm-3.9-5.631a.746.746,0,0,1-.554-.244q-.375-.412-.768-.8a.751.751,0,0,1,0-1.061.751.751,0,0,1,1.06,0q.417.417.815.854a.75.75,0,0,1-.049,1.06A.747.747,0,0,1,154.054-85.193Zm-32.417-4.391a.747.747,0,0,1-.635-.35.75.75,0,0,1,.234-1.034A26.167,26.167,0,0,1,135.222-95,26.174,26.174,0,0,1,149.2-90.976a.749.749,0,0,1,.235,1.034.75.75,0,0,1-1.034.235A24.681,24.681,0,0,0,135.222-93.5a24.676,24.676,0,0,0-13.185,3.8A.746.746,0,0,1,121.637-89.584Z" transform="translate(-120.886 95)" fill="#8de6d1"/>
      </g>
      <g id="Group_329" data-name="Group 329" transform="translate(48 19.313)">
        <path id="Path_615" data-name="Path 615" d="M169.749-49.547a.753.753,0,0,1-.353-.089.75.75,0,0,1-.307-1.015A24.81,24.81,0,0,0,172-62.312a24.842,24.842,0,0,0-.733-6.005.751.751,0,0,1,.547-.91.753.753,0,0,1,.909.547,26.361,26.361,0,0,1,.778,6.368,26.321,26.321,0,0,1-3.089,12.368A.75.75,0,0,1,169.749-49.547Z" transform="translate(-169 69.249)" fill="#8de6d1"/>
      </g>
    </g>
  </g>
</svg>
