<svg id="Відновити_зруйнований_зуб" data-name="Відновити зруйнований зуб" xmlns="http://www.w3.org/2000/svg" width="60" height="60" viewBox="0 0 60 60">
  <g id="Group_314" data-name="Group 314">
    <rect id="Rectangle_240" data-name="Rectangle 240" width="60" height="60" fill="none"/>
  </g>
  <g id="Group_317" data-name="Group 317" transform="translate(24.563 6.397)">
    <g id="Group_315" data-name="Group 315" transform="translate(0 25.215)">
      <path id="Path_601" data-name="Path 601" d="M237.438-57.85V-54.9a7.225,7.225,0,0,0-4.687,3.472C233.553-53.613,235.18-57.175,237.438-57.85Z" transform="translate(-232.75 57.85)" fill="#f0f2f9"/>
      <path id="Path_602" data-name="Path 602" d="M245.553-51.79c-1.058-1.927-2.543-3.173-4.553-3.173V-57.85C243.145-57.213,244.712-53.98,245.553-51.79Z" transform="translate(-234.813 57.85)" fill="#f0f2f9"/>
    </g>
    <g id="Group_316" data-name="Group 316" transform="translate(15.195)">
      <path id="Path_603" data-name="Path 603" d="M259.1-70.305c-.893,1.927-1.6,3.442-1.6,4.688a25.88,25.88,0,0,0,.33,3.772,32.66,32.66,0,0,1,.42,5.228,21.552,21.552,0,0,1-2.46,10.485,40.883,40.883,0,0,0,.96-8.235c0-6.022-1.5-6.75-1.5-9.75,0-5.25,2.25-6,2.25-12,0-4.425-4.357-7.4-4.493-15.353,3.135.443,6.285,1.35,8.13,3.173a5.261,5.261,0,0,1,1.612,3.93C262.753-78.18,260.637-73.628,259.1-70.305Z" transform="translate(-253.01 91.47)" fill="#f0f2f9"/>
    </g>
  </g>
  <g id="Group_319" data-name="Group 319" transform="translate(21.217 9.015)">
    <g id="Group_318" data-name="Group 318">
      <path id="Path_604" data-name="Path 604" d="M236.322-87.98v4.065a3.125,3.125,0,0,1-2.25,1.17c-1.725,0-2.9-.908-4.147-1.875a13.634,13.634,0,0,0-1.635-1.147C232.8-85.993,230.9-87.83,236.322-87.98Z" transform="translate(-228.29 87.98)" fill="#68dec2"/>
    </g>
  </g>
  <g id="Group_321" data-name="Group 321" transform="translate(12 3)">
    <g id="Group_320" data-name="Group 320">
      <path id="Path_605" data-name="Path 605" d="M255-85.5a6.757,6.757,0,0,0-2.062-5c-4.193-4.155-13.807-4.05-17.423-4.012-.3.007-.555.007-.765.007v-.75A.752.752,0,0,0,234-96a.752.752,0,0,0-.75.75v2.04c-.15-.045-.3-.1-.443-.143A17.932,17.932,0,0,0,227.25-94.5a5.839,5.839,0,0,0-3.84,1.665A4.482,4.482,0,0,1,220.5-91.5c-3.915,0-4.5,2.347-4.5,3.75a7.91,7.91,0,0,0,.743,2.64,8.162,8.162,0,0,1,.757,2.61,5.181,5.181,0,0,1-.743,2.655,5.251,5.251,0,0,0-.757,2.6c0,2.085,2.61,6.42,3.75,7.785a26.935,26.935,0,0,1-.878,7.23,17.3,17.3,0,0,0-.622,4.485c0,9.615,4.432,15.75,6.75,15.75a1.738,1.738,0,0,0,1.268-.525c1.027-1.027,1-3.42.99-6.442-.007-.42-.007-.847-.007-1.283,0-6.93,3.022-11.925,6-12.653v9.653a.752.752,0,0,0,.75.75.752.752,0,0,0,.75-.75V-63c3.607,0,5.25,6.608,5.25,12.75,0,3.083.39,8.25,3,8.25,2.572,0,7.5-6.135,7.5-15.75a34.915,34.915,0,0,0-.435-5.437,24.3,24.3,0,0,1-.315-3.562,12.585,12.585,0,0,1,1.455-4.057C252.81-74.257,255-78.982,255-85.5Zm-21.75-.42A3.125,3.125,0,0,1,231-84.75c-1.725,0-2.9-.908-4.147-1.875a13.633,13.633,0,0,0-1.635-1.147,4.806,4.806,0,0,0-2.467-.728.752.752,0,0,0-.75.75.752.752,0,0,0,.75.75,5.419,5.419,0,0,1,3.18,1.56A8.022,8.022,0,0,0,231-83.25a4.144,4.144,0,0,0,2.25-.69v19.5a7.225,7.225,0,0,0-4.687,3.473A19.863,19.863,0,0,0,225.75-50.25c0,.435,0,.87.007,1.29.015,2.25.03,4.792-.555,5.377a.244.244,0,0,1-.2.083c-1.125,0-5.25-5.19-5.25-14.25a15.523,15.523,0,0,1,.585-4.132,27.878,27.878,0,0,0,.893-6.345A13.372,13.372,0,0,0,228-66a.752.752,0,0,0,.75-.75.752.752,0,0,0-.75-.75,11.9,11.9,0,0,1-6.967-2.783c-.885-.885-3.533-5.318-3.533-6.967a3.9,3.9,0,0,1,.592-1.913A6.594,6.594,0,0,0,219-82.5a9.141,9.141,0,0,0-.862-3.173,7.231,7.231,0,0,1-.638-2.077c0-1.11.36-2.25,3-2.25a5.839,5.839,0,0,0,3.84-1.665A4.482,4.482,0,0,1,227.25-93a16.672,16.672,0,0,1,5.085,1.073c.36.12.66.217.915.292Zm15,19.17a25.878,25.878,0,0,0,.33,3.772A32.662,32.662,0,0,1,249-57.75a21.552,21.552,0,0,1-2.46,10.485v.007c-1.388,2.5-2.948,3.757-3.54,3.757-.473,0-1.5-1.7-1.5-6.75,0-3.915-.63-8.235-2.2-11.07v-.007c-1.058-1.928-2.543-3.173-4.553-3.173V-93c.217,0,.48,0,.78-.007a54.726,54.726,0,0,1,8.227.4c3.135.443,6.285,1.35,8.13,3.173A5.261,5.261,0,0,1,253.5-85.5c0,6.188-2.115,10.74-3.652,14.063C248.955-69.51,248.25-67.995,248.25-66.75Z" transform="translate(-216 96)" fill="#3b3d4d"/>
    </g>
  </g>
</svg>
