<svg id="Хірургічна_стоматологія" data-name="Хірургічна стоматологія" xmlns="http://www.w3.org/2000/svg" width="60" height="60" viewBox="0 0 60 60">
  <rect id="Rectangle_238" data-name="Rectangle 238" width="60" height="60" fill="none"/>
  <g id="Group_287" data-name="Group 287" transform="translate(27.24 6.69)">
    <g id="Group_286" data-name="Group 286">
      <path id="Path_581" data-name="Path 581" d="M50.33,37.96v2.49a.506.506,0,0,1-.51.51H36.32c.908-1.4,4.192-2.2,5.355-3.12a.754.754,0,0,0,.4.12Z" transform="translate(-36.32 -16.15)" fill="#f0f2f9"/>
      <path id="Path_582" data-name="Path 582" d="M57.59,14.425A29.122,29.122,0,0,1,54.882,26.05a18.005,18.005,0,0,0-1.1,3.18H51.522c.4-2.91,1.927-3.885,1.927-8.085,0-3.555-3.442-5.962-3.66-12.225,2.5.285,5.055.93,6.533,2.378A4.15,4.15,0,0,1,57.59,14.425Z" transform="translate(-39.688 -8.92)" fill="#f0f2f9"/>
    </g>
  </g>
  <g id="Group_288" data-name="Group 288" transform="translate(23.25 33)">
    <path id="Path_583" data-name="Path 583" d="M44.5,44v2.25c-.03,0-.052.007-.083.007L31,47.75V44Z" transform="translate(-31 -44)" fill="#68dec2"/>
    <path id="Path_584" data-name="Path 584" d="M44.5,49v3a.308.308,0,0,0-.083.007L31,53.5v-3a.308.308,0,0,0,.083-.007Z" transform="translate(-31 -45.25)" fill="#68dec2"/>
    <path id="Path_585" data-name="Path 585" d="M44.5,55v3c-.03,0-.052.007-.083.007L31,59.5v-3a.308.308,0,0,0,.083-.007Z" transform="translate(-31 -46.75)" fill="#68dec2"/>
    <path id="Path_586" data-name="Path 586" d="M37.007,65.583a.747.747,0,0,0,.743.667.308.308,0,0,0,.083-.007L44.5,65.5v1.387L37.75,70.75,31,66.887V62.5a.308.308,0,0,0,.083-.007L44.5,61v3c-.03,0-.052.007-.083.007l-6.75.75A.744.744,0,0,0,37.007,65.583Z" transform="translate(-31 -48.25)" fill="#68dec2"/>
  </g>
  <g id="Group_289" data-name="Group 289" transform="translate(19.469 10.216)">
    <path id="Path_587" data-name="Path 587" d="M33.433,18.177a6.65,6.65,0,0,1-4.215-1.812,4.359,4.359,0,0,0-2.51-1.243.75.75,0,0,1,0-1.5,5.586,5.586,0,0,1,3.426,1.556,5.3,5.3,0,0,0,3.3,1.5,2.553,2.553,0,0,0,1.845-.925.75.75,0,0,1,1.2.9A4.059,4.059,0,0,1,33.433,18.177Z" transform="translate(-25.958 -13.621)" fill="#3b3d4d"/>
  </g>
  <g id="Group_290" data-name="Group 290" transform="translate(6.75 4.99)">
    <path id="Path_588" data-name="Path 588" d="M45,30.913v-1.5a11.4,11.4,0,0,1,1.08-3.36,30.605,30.605,0,0,0,2.813-12.195,5.661,5.661,0,0,0-1.717-4.2C43.92,6.471,37.035,6.606,33.72,6.681c-.7.015-1.058.015-1.778,0-3.36-.075-11.228-.233-14.663,3.142a5.434,5.434,0,0,0-1.673,4.028c0,5.34,1.942,9.33,3.367,12.248a10.5,10.5,0,0,1,1.275,3.315v1.515c-.263-.007-.495-.015-.7-.015A10.56,10.56,0,0,0,9,41.458v1.125a2.264,2.264,0,0,0,1.538,2.137L22.35,47.143a1.016,1.016,0,0,0,.15.015.75.75,0,0,0,.15-1.485L10.98,43.288a.775.775,0,0,1-.48-.7V41.458a9.055,9.055,0,0,1,9.045-9.045c.21,0,.442.007.7.022v.218a2.01,2.01,0,0,0,2.01,2.01H42.99A2.01,2.01,0,0,0,45,32.653v-.24a9.055,9.055,0,0,1,9,9.045v1.125a.775.775,0,0,1-.48.7L41.85,45.673A.75.75,0,0,0,42,47.158a1.016,1.016,0,0,0,.15-.015l11.722-2.4.09-.022A2.264,2.264,0,0,0,55.5,42.583V41.458A10.56,10.56,0,0,0,45,30.913Zm-.315-5.43a18.005,18.005,0,0,0-1.1,3.18H35.25a.761.761,0,0,0-.217,1.466.74.74,0,0,0,.217.034H43.5v2.49a.506.506,0,0,1-.51.51H22.26a.506.506,0,0,1-.51-.51v-2.49H24a.75.75,0,0,0,0-1.5H21.66a16.356,16.356,0,0,0-1.335-3.225c-1.358-2.783-3.218-6.593-3.218-11.588A3.922,3.922,0,0,1,18.33,10.9c2.475-2.437,8.2-2.738,11.738-2.738.72,0,1.35.007,1.845.023.75.015,1.118.015,1.838,0a44.836,44.836,0,0,1,5.842.172c2.505.285,5.055.93,6.533,2.378a4.15,4.15,0,0,1,1.267,3.127A29.122,29.122,0,0,1,44.685,25.483Z" transform="translate(-9 -6.653)" fill="#3b3d4d"/>
  </g>
  <g id="Group_291" data-name="Group 291" transform="translate(22.503 35.25)">
    <path id="Path_589" data-name="Path 589" d="M47.243,65.667a.744.744,0,0,1-.66.825L46.5,66.5l-6.667.743a.308.308,0,0,1-.083.007.749.749,0,0,1-.083-1.493l6.75-.75c.03,0,.053-.007.083-.007A.753.753,0,0,1,47.243,65.667Z" transform="translate(-32.254 -51.5)" fill="#3b3d4d"/>
    <path id="Path_590" data-name="Path 590" d="M44.993,59.667a.744.744,0,0,1-.66.825l-.083.007L30.833,61.993a.308.308,0,0,1-.083.007.749.749,0,0,1-.083-1.493l.083-.007,13.417-1.493c.03,0,.053-.007.083-.007A.753.753,0,0,1,44.993,59.667Z" transform="translate(-30.004 -50)" fill="#3b3d4d"/>
    <path id="Path_591" data-name="Path 591" d="M44.993,53.667a.744.744,0,0,1-.66.825l-.083.007L30.833,55.993a.308.308,0,0,1-.083.007.749.749,0,0,1-.083-1.493l.083-.007,13.417-1.493A.308.308,0,0,1,44.251,53,.747.747,0,0,1,44.993,53.667Z" transform="translate(-30.004 -48.5)" fill="#3b3d4d"/>
    <path id="Path_592" data-name="Path 592" d="M44.993,47.667a.744.744,0,0,1-.66.825l-.083.007L30.833,49.993a.308.308,0,0,1-.083.007.749.749,0,0,1-.083-1.493l.083-.007,13.417-1.493c.03,0,.053-.007.083-.007A.753.753,0,0,1,44.993,47.667Z" transform="translate(-30.004 -47)" fill="#3b3d4d"/>
  </g>
</svg>
