<svg id="Зробити_зуби_рівними" data-name="Зробити зуби рівними" xmlns="http://www.w3.org/2000/svg" width="60" height="60" viewBox="0 0 60 60">
  <rect id="Rectangle_235" data-name="Rectangle 235" width="60" height="60" fill="none"/>
  <g id="Group_268" data-name="Group 268" transform="translate(28.5 15.75)">
    <path id="Path_560" data-name="Path 560" d="M245.5,21V36.75h-3V36a.752.752,0,0,0-.75-.75H238V22.5h3v5.25a.75.75,0,0,0,1.5,0V21Z" transform="translate(-238 -21)" fill="#8de6d1"/>
  </g>
  <g id="Group_269" data-name="Group 269" transform="translate(24 14.25)">
    <rect id="Rectangle_236" data-name="Rectangle 236" width="3" height="15.75" transform="translate(0 1.5)" fill="#8de6d1"/>
    <path id="Path_561" data-name="Path 561" d="M234.48,19c.127.007.255.015.39.015.09,0,.18-.007.27-.015Z" transform="translate(-232.62 -19)" fill="#3b3d4d"/>
  </g>
  <g id="Group_270" data-name="Group 270" transform="translate(25.132 31.507)">
    <path id="Path_562" data-name="Path 562" d="M243.245,48.055c-1.073-2.265-2.648-3.787-4.868-3.787s-3.795,1.522-4.868,3.787a16.6,16.6,0,0,1,2.378-4.552h.24a.752.752,0,0,0,.75-.75v-.21a2.379,2.379,0,0,1,3,0v.21a.752.752,0,0,0,.75.75h.24A16.6,16.6,0,0,1,243.245,48.055Z" transform="translate(-233.51 -42.01)" fill="#f0f2f9"/>
  </g>
  <g id="Group_271" data-name="Group 271" transform="translate(9 3.741)">
    <path id="Path_563" data-name="Path 563" d="M253.25,25.247H240.5v-1.5h12.75a.75.75,0,0,0,0-1.5h-1.223a28.238,28.238,0,0,0,1.223-8.227,6.786,6.786,0,0,0-2.062-5C246.995,4.862,237.372,4.967,233.75,5c-.585.008-.93.008-1.515,0-3.615-.038-13.23-.135-17.43,4.012A6.779,6.779,0,0,0,212.75,14a28.344,28.344,0,0,0,1.223,8.242H212.75a.75.75,0,0,0,0,1.5H225.5v1.5H212.75a.75.75,0,0,0,0,1.5h2.91c.3.69.6,1.343.885,1.95A12.585,12.585,0,0,1,218,32.755a24.5,24.5,0,0,1-.315,3.57,34.915,34.915,0,0,0-.435,5.438c0,9.608,4.928,15.743,7.5,15.743,2.61,0,3-5.167,3-8.25,0-6.135,1.643-12.743,5.25-12.743s5.25,6.608,5.25,12.743c0,3.083.39,8.25,3,8.25,2.572,0,7.5-6.135,7.5-15.743a34.915,34.915,0,0,0-.435-5.437A24.3,24.3,0,0,1,248,32.762a10.328,10.328,0,0,1,1.193-3.48c.142-.007.285-.007.435-.007a.747.747,0,0,0,.75-.75.736.736,0,0,0-.51-.7c.158-.345.315-.7.48-1.073h2.9a.75.75,0,0,0,0-1.5Zm-37.7-3A26.873,26.873,0,0,1,214.25,14a5.261,5.261,0,0,1,1.612-3.93C219.612,6.37,228.777,6.46,232.22,6.5c.6.008.952.008,1.545,0a56.137,56.137,0,0,1,8.242.413c3.135.443,6.285,1.35,8.13,3.172a5.278,5.278,0,0,1,1.612,3.938c0,.48-.015.96-.037,1.417-.015.292-.038.585-.06.862a26.286,26.286,0,0,1-.443,3.045c-.037.21-.09.428-.142.638-.173.8-.383,1.545-.615,2.265H240.5v-6a.752.752,0,0,0-.75-.75h-4.5a.752.752,0,0,0-.75.75V17h-3v-.622a4.961,4.961,0,0,0,1.35-1.17.75.75,0,1,0-1.2-.9,3.38,3.38,0,0,1-2.13,1.193c-.09.007-.18.015-.27.015-.135,0-.263-.008-.39-.015a7.118,7.118,0,0,1-3.757-1.86,6.725,6.725,0,0,0-4.1-1.875.75.75,0,0,0,0,1.5,5.419,5.419,0,0,1,3.18,1.56c.45.345.915.712,1.432,1.035a.7.7,0,0,0-.112.39v6Zm19.7,9H231.5V18.5h3v5.25a.75.75,0,0,0,1.5,0V17h3v15.75h-3V32A.752.752,0,0,0,235.25,31.247ZM230,17v15.75h-3V17Zm17.3,12.84c-.067.158-.135.315-.2.472s-.12.307-.173.45-.1.293-.15.435a5.92,5.92,0,0,0-.173.645,1.784,1.784,0,0,0-.037.195.219.219,0,0,0-.015.068c-.015.1-.03.195-.038.292a3.119,3.119,0,0,0-.022.368,25.878,25.878,0,0,0,.33,3.772,32.583,32.583,0,0,1,.42,5.228,21.578,21.578,0,0,1-2.452,10.47C243.41,54.752,241.842,56,241.25,56c-.473,0-1.5-1.7-1.5-6.75A26.02,26.02,0,0,0,237.868,38.8c-1.073-2.265-2.648-3.787-4.868-3.787s-3.795,1.522-4.868,3.787a26.02,26.02,0,0,0-1.882,10.455c0,5.048-1.027,6.75-1.5,6.75-1.147,0-6-4.747-6-14.243a32.583,32.583,0,0,1,.42-5.228,25.758,25.758,0,0,0,.33-3.757,6.969,6.969,0,0,0,1.913,1.388.7.7,0,0,0,.337.083.736.736,0,0,0,.667-.412.744.744,0,0,0-.33-1.005c-1.147-.577-2.61-1.755-4.755-6.083H225.5V31.24c-.247.007-.495.007-.75.007a.75.75,0,0,0,0,1.5c.255,0,.5,0,.75-.007V33.5a.752.752,0,0,0,.75.75h4.5a.752.752,0,0,0,.75-.75v-.75h3v.75a.752.752,0,0,0,.75.75h4.5a.752.752,0,0,0,.75-.75v-2.16a24.306,24.306,0,0,0,2.355-.862,15.767,15.767,0,0,1,2.107-.75,13.671,13.671,0,0,1,2.557-.383C247.438,29.507,247.37,29.672,247.3,29.837Zm1.327-2.91c-.082.173-.158.345-.24.51-.052.128-.112.248-.165.368a20.675,20.675,0,0,0-2.685.263,13.9,13.9,0,0,0-3.255,1.02c-.533.217-1.1.45-1.785.675V26.747h8.205A1.826,1.826,0,0,0,248.63,26.927Z" transform="translate(-212 -4.988)" fill="#3b3d4d"/>
    <path id="Path_564" data-name="Path 564" d="M257.272,40.512a3.119,3.119,0,0,0-.022.368,25.876,25.876,0,0,0,.33,3.772A32.585,32.585,0,0,1,258,49.88a21.578,21.578,0,0,1-2.452,10.47,41.466,41.466,0,0,0,.952-8.22c0-6.022-1.5-6.757-1.5-9.757a13.694,13.694,0,0,1,.712-4.53,13.671,13.671,0,0,1,2.557-.382c-.082.165-.15.33-.217.5s-.135.315-.2.472-.12.308-.172.45-.1.292-.15.435a5.92,5.92,0,0,0-.173.645,1.784,1.784,0,0,0-.037.195.219.219,0,0,0-.015.068C257.295,40.317,257.28,40.415,257.272,40.512Z" transform="translate(-222.75 -13.106)" fill="#f0f2f9"/>
    <path id="Path_565" data-name="Path 565" d="M259.885,34a1.823,1.823,0,0,0-.075.18c-.082.173-.158.345-.24.51-.052.128-.112.248-.165.368a20.675,20.675,0,0,0-2.685.263c.142-.42.285-.855.4-1.32Z" transform="translate(-223.18 -12.241)" fill="#f0f2f9"/>
    <path id="Path_566" data-name="Path 566" d="M261.753,14.66c0,.48-.015.96-.038,1.418-.015.292-.038.585-.06.862a26.286,26.286,0,0,1-.443,3.045c-.037.21-.09.428-.142.638-.173.8-.383,1.545-.615,2.265H256.5c-.008-4.41-4.357-7.388-4.493-15.338,3.135.443,6.285,1.35,8.13,3.172A5.278,5.278,0,0,1,261.753,14.66Z" transform="translate(-222.003 -5.629)" fill="#f0f2f9"/>
  </g>
  <g id="Group_272" data-name="Group 272" transform="translate(25.837 15.75)">
    <path id="Path_567" data-name="Path 567" d="M235.133,21a1.63,1.63,0,0,1-.27.015c-.143,0-.277-.007-.413-.015Z" transform="translate(-234.45 -21)" fill="#3b3d4d"/>
  </g>
</svg>
